# 3ds Max Wavefront OBJ Exporter v0.97b - (c)2007 guruware
# File Created: 31.07.2024 16:39:43

#
# object Circle002
#

v  17.8670 0.0000 -6.6757
v  16.4852 0.0000 -12.8062
v  13.7450 0.0000 -10.6775
v  14.8951 0.0000 -5.5748
v  14.3175 0.0000 -18.2160
v  11.9382 0.0000 -15.1866
v  11.4745 0.0000 -22.7293
v  9.5662 0.0000 -18.9522
v  8.0668 0.0000 -26.1706
v  6.7259 0.0000 -21.8205
v  4.2051 0.0000 -28.3642
v  3.5116 0.0000 -23.6463
v  -0.0000 0.0000 -29.1344
v  -0.0000 0.0000 -24.2895
v  -4.2051 0.0000 -28.3642
v  -3.5116 0.0000 -23.6463
v  -8.0668 0.0000 -26.1706
v  -6.7259 0.0000 -21.8205
v  -11.4745 0.0000 -22.7293
v  -9.5662 0.0000 -18.9522
v  -14.3175 0.0000 -18.2160
v  -11.9382 0.0000 -15.1866
v  -16.4852 0.0000 -12.8062
v  -13.7450 0.0000 -10.6775
v  -17.8670 0.0000 -6.6757
v  -14.8951 0.0000 -5.5748
# 26 vertices

vn 0.0000 1.0000 -0.0000
# 1 vertex normals

o Circle002
g Circle002
s off
f 1//1 2//1 3//1 
f 3//1 4//1 1//1 
f 2//1 5//1 6//1 
f 6//1 3//1 2//1 
f 5//1 7//1 8//1 
f 8//1 6//1 5//1 
f 7//1 9//1 10//1 
f 10//1 8//1 7//1 
f 9//1 11//1 12//1 
f 12//1 10//1 9//1 
f 11//1 13//1 14//1 
f 14//1 12//1 11//1 
f 13//1 15//1 16//1 
f 16//1 14//1 13//1 
f 15//1 17//1 18//1 
f 18//1 16//1 15//1 
f 17//1 19//1 20//1 
f 20//1 18//1 17//1 
f 19//1 21//1 22//1 
f 22//1 20//1 19//1 
f 21//1 23//1 24//1 
f 24//1 22//1 21//1 
f 23//1 25//1 26//1 
f 26//1 24//1 23//1 
# 24 faces

